# xmcd
#
# Track frame offsets: 
#        150
#        58913
#        84088
#        121560
#        137400
#        171458
#        220913
#        282781
#
# Disc length: 4133 seconds
#
# Revision: 0
# Processed by: cddbd v1.4PL0 Copyright (c) Steve Scherf et al.
# Submitted via: ExactAudioCopy v0.90b4
#
DISCID=69102308
DTITLE=Dire Straits - Alchemy
DYEAR=1900
DGENRE=
TTITLE0=Once Upon A Time In The West
TTITLE1=Expresso Love
TTITLE2=Romeo And Juliet
TTITLE3=Love Over Gold
TTITLE4=Private Investigations
TTITLE5=Sultans Of Swing
TTITLE6=Telegraph Road
TTITLE7=Going Home
EXTD=
EXTT0=
EXTT1=
EXTT2=
EXTT3=
EXTT4=
EXTT5=
EXTT6=
EXTT7=
PLAYORDER=
